<svg width="262" height="84" viewBox="0 0 262 84" fill="none" xmlns="http://www.w3.org/2000/svg">
<g clip-path="url(#clip0_1_67)">
<path d="M0 59.87V7.86999C0 5.48999 1.93 3.54999 4.32 3.54999H30.1C33.1 3.54999 35.54 5.97999 35.54 8.98999C35.54 11.99 33.11 14.43 30.1 14.43H12.1V30.63H26.34C29.34 30.63 31.78 33.06 31.78 36.07C31.78 39.07 29.35 41.51 26.34 41.51H12.1V59.87C12.1 63.21 9.39 65.92 6.05 65.92C2.71 65.92 0 63.21 0 59.87Z" fill="white"/>
<path d="M53.8199 66.6C51.2799 66.6 49.1899 66.06 47.5399 64.97C45.8899 63.88 44.6499 62.41 43.8199 60.55C42.9899 58.69 42.5699 56.57 42.5699 54.2V6.60001C42.5699 3.38001 45.1799 0.76001 48.4099 0.76001C51.6299 0.76001 54.2499 3.37001 54.2499 6.60001V52.81C54.2499 53.49 54.3299 54.12 54.4799 54.69C54.6299 55.27 54.9299 55.73 55.3699 56.09C55.8099 56.44 56.4499 56.62 57.2899 56.62C57.7099 56.62 58.0799 56.58 58.3899 56.51C58.6999 56.44 58.9799 56.36 59.2399 56.28V63.32C59.2399 64.81 58.1699 66.09 56.6999 66.35C55.7399 66.52 54.7799 66.6 53.8199 66.6Z" fill="white"/>
<path d="M72.27 14.85C70.21 14.85 68.46 14.12 67.02 12.67C65.58 11.22 64.86 9.45999 64.86 7.39999C64.86 5.33999 65.58 3.55999 67.02 2.12999C68.46 0.69999 70.21 -0.0100098 72.27 -0.0100098C74.33 -0.0100098 76.11 0.69999 77.54 2.12999C78.96 3.54999 79.68 5.30999 79.68 7.39999C79.68 9.48999 78.97 11.22 77.54 12.67C76.12 14.12 74.36 14.85 72.27 14.85ZM66.47 60.08V26.44C66.47 23.22 69.08 20.6 72.31 20.6C75.53 20.6 78.15 23.21 78.15 26.44V60.08C78.15 63.3 75.54 65.92 72.31 65.92C69.09 65.92 66.47 63.31 66.47 60.08Z" fill="white"/>
<path d="M87.7099 60.08V26.3C87.7099 23.16 90.2599 20.61 93.3999 20.61C96.5399 20.61 99.0899 23.16 99.0899 26.3V27.13H100.36L97.4799 30.22C98.1899 28.67 99.2399 27.1 100.63 25.52C102.02 23.94 103.75 22.61 105.81 21.54C107.87 20.47 110.27 19.93 113 19.93C114.16 19.93 115.19 20.01 116.09 20.18C116.99 20.35 117.64 20.53 118.04 20.73L113.34 31.94C113.09 31.8 112.61 31.66 111.92 31.52C111.23 31.38 110.46 31.31 109.61 31.31C108.51 31.31 107.35 31.53 106.14 31.97C104.93 32.41 103.81 33.06 102.8 33.94C101.78 34.82 100.96 35.91 100.32 37.24C99.6899 38.57 99.3699 40.12 99.3699 41.9V60.09C99.3699 63.31 96.7599 65.93 93.5299 65.93C90.3099 65.93 87.6899 63.32 87.6899 60.09L87.7099 60.08Z" fill="white"/>
<path d="M119.28 25.3C119.28 22.68 121.4 20.56 124.02 20.56H144.33C146.95 20.56 149.07 22.68 149.07 25.3C149.07 27.92 146.95 30.04 144.33 30.04H124.02C121.4 30.04 119.28 27.92 119.28 25.3ZM142.3 66.6C137.14 66.6 133.25 65.17 130.64 62.31C128.03 59.45 126.73 55.77 126.73 51.29V12.86C126.73 9.64002 129.34 7.02002 132.57 7.02002C135.79 7.02002 138.41 9.63002 138.41 12.86V50.61C138.41 52.67 138.91 54.14 139.91 55.03C140.91 55.92 142.1 56.36 143.49 56.36C144.14 56.36 144.77 56.28 145.37 56.13C145.97 55.98 146.51 55.77 146.96 55.52L150.77 64.74C149.59 65.36 148.28 65.83 146.86 66.14C145.44 66.45 143.92 66.6 142.31 66.6H142.3Z" fill="white"/>
<path d="M181.99 66.6C177.14 66.6 172.91 65.6 169.32 63.6C165.73 61.6 162.94 58.78 160.96 55.16C158.98 51.54 158 47.28 158 42.4V9.59999C158 6.25999 160.71 3.54999 164.05 3.54999C167.39 3.54999 170.1 6.25999 170.1 9.59999V43.24C170.1 45.78 170.6 47.99 171.6 49.86C172.6 51.74 174 53.18 175.79 54.2C177.58 55.22 179.65 55.72 181.99 55.72C185.66 55.72 188.56 54.58 190.71 52.29C192.85 50.01 193.93 46.99 193.93 43.24V9.59999C193.93 6.25999 196.64 3.54999 199.98 3.54999C203.32 3.54999 206.03 6.25999 206.03 9.59999V42.4C206.03 47.28 205.05 51.53 203.09 55.16C201.13 58.78 198.35 61.6 194.75 63.6C191.15 65.6 186.9 66.6 181.99 66.6Z" fill="white"/>
<path d="M216.94 77.85V25.47C216.94 22.78 219.12 20.6 221.81 20.6H223.29C225.98 20.6 228.16 22.78 228.16 25.47H229.68L227.52 30.17V55.98L230.52 61.14H228.62V77.85C228.62 81.07 226.01 83.69 222.78 83.69C219.56 83.69 216.94 81.08 216.94 77.85ZM241.86 66.59C238.05 66.59 234.65 65.54 231.64 63.44C228.64 61.34 226.25 58.49 224.49 54.89C222.73 51.29 221.83 47.31 221.8 42.94C221.83 38.6 222.69 34.68 224.38 31.18C226.07 27.68 228.4 24.92 231.36 22.89C234.32 20.86 237.72 19.84 241.56 19.84C245.06 19.84 248.36 20.74 251.46 22.53C254.56 24.32 257.07 26.97 258.99 30.46C260.91 33.96 261.84 38.25 261.78 43.32C261.84 47.13 261.31 50.49 260.19 53.39C259.07 56.29 257.57 58.73 255.66 60.69C253.76 62.65 251.6 64.12 249.21 65.11C246.81 66.1 244.36 66.59 241.85 66.59H241.86ZM239.24 56.69C241.44 56.66 243.37 56.08 245.04 54.93C246.7 53.79 248.01 52.2 248.95 50.17C249.89 48.14 250.35 45.78 250.33 43.1C250.36 40.39 249.89 38.04 248.93 36.03C247.97 34.03 246.64 32.48 244.93 31.38C243.22 30.28 241.27 29.74 239.07 29.77C237.01 29.74 235.15 30.26 233.48 31.34C231.81 32.42 230.5 33.94 229.52 35.93C228.55 37.92 228.05 40.31 228.02 43.1C228.05 45.78 228.55 48.14 229.52 50.17C230.49 52.2 231.82 53.79 233.5 54.93C235.18 56.07 237.09 56.66 239.23 56.69H239.24Z" fill="white"/>
</g>
<defs>
<clipPath id="clip0_1_67">
<rect width="261.79" height="83.69" fill="white"/>
</clipPath>
</defs>
</svg>
